<svg xmlns="http://www.w3.org/2000/svg" width="1510" height="464" viewBox="0 0 1510 464">
<rect width="100%" height="100%" rx="10" fill="#11111b"/>
<g font-family="SFMono-Regular, Menlo, Consolas, 'Liberation Mono', monospace" font-size="14" xml:space="preserve">
<text x="16.0" y="29.5" textLength="84.0" lengthAdjust="spacing" fill="#ffa500">Platforms:</text>
<text x="108.4" y="29.5" textLength="67.2" lengthAdjust="spacing" fill="#ffffff">android,</text>
<text x="184.0" y="29.5" textLength="25.2" lengthAdjust="spacing" fill="#ffffff">ios</text>
<text x="293.2" y="29.5" textLength="25.2" lengthAdjust="spacing" fill="#00ffff">&lt;:&gt;</text>
<text x="368.8" y="29.5" textLength="58.8" lengthAdjust="spacing" fill="#808080">command</text>
<text x="444.4" y="29.5" textLength="58.8" lengthAdjust="spacing" fill="#00ffff">&lt;enter&gt;</text>
<text x="520.0" y="29.5" textLength="33.6" lengthAdjust="spacing" fill="#808080">apps</text>
<text x="562.0" y="29.5" textLength="50.4" lengthAdjust="spacing" fill="#808080">(boots</text>
<text x="620.8" y="29.5" textLength="50.4" lengthAdjust="spacing" fill="#808080">first)</text>
<text x="730.0" y="29.5" textLength="25.2" lengthAdjust="spacing" fill="#00ffff">&lt;n&gt;</text>
<text x="763.6" y="29.5" textLength="25.2" lengthAdjust="spacing" fill="#808080">new</text>
<text x="797.2" y="29.5" textLength="50.4" lengthAdjust="spacing" fill="#808080">device</text>
<text x="940.0" y="29.5" textLength="25.2" lengthAdjust="spacing" fill="#00ffff">&lt;h&gt;</text>
<text x="1040.8" y="29.5" textLength="33.6" lengthAdjust="spacing" fill="#808080">home</text>
<text x="1082.8" y="29.5" textLength="25.2" lengthAdjust="spacing" fill="#808080">key</text>
<text x="1334.8" y="29.5" textLength="58.8" lengthAdjust="spacing" fill="#ffff00">___(_)_</text>
<text x="1402.0" y="29.5" textLength="16.8" lengthAdjust="spacing" fill="#ffff00">__</text>
<text x="1427.2" y="29.5" textLength="25.2" lengthAdjust="spacing" fill="#ffff00">___</text>
<text x="1469.2" y="29.5" textLength="25.2" lengthAdjust="spacing" fill="#ffff00">___</text>
<text x="16.0" y="47.5" textLength="33.6" lengthAdjust="spacing" fill="#ffa500">CPU:</text>
<text x="108.4" y="47.5" textLength="25.2" lengthAdjust="spacing" fill="#ffffff">23%</text>
<text x="293.2" y="47.5" textLength="25.2" lengthAdjust="spacing" fill="#00ffff">&lt;?&gt;</text>
<text x="368.8" y="47.5" textLength="33.6" lengthAdjust="spacing" fill="#808080">help</text>
<text x="444.4" y="47.5" textLength="25.2" lengthAdjust="spacing" fill="#00ffff">&lt;l&gt;</text>
<text x="520.0" y="47.5" textLength="33.6" lengthAdjust="spacing" fill="#808080">logs</text>
<text x="730.0" y="47.5" textLength="25.2" lengthAdjust="spacing" fill="#00ffff">&lt;e&gt;</text>
<text x="763.6" y="47.5" textLength="33.6" lengthAdjust="spacing" fill="#808080">edit</text>
<text x="805.6" y="47.5" textLength="67.2" lengthAdjust="spacing" fill="#808080">hardware</text>
<text x="881.2" y="47.5" textLength="42.0" lengthAdjust="spacing" fill="#808080">(avd)</text>
<text x="940.0" y="47.5" textLength="92.4" lengthAdjust="spacing" fill="#00ffff">&lt;backspace&gt;</text>
<text x="1040.8" y="47.5" textLength="33.6" lengthAdjust="spacing" fill="#808080">back</text>
<text x="1082.8" y="47.5" textLength="25.2" lengthAdjust="spacing" fill="#808080">key</text>
<text x="1318.0" y="47.5" textLength="8.4" lengthAdjust="spacing" fill="#ffff00">/</text>
<text x="1334.8" y="47.5" textLength="25.2" lengthAdjust="spacing" fill="#ffff00">__|</text>
<text x="1368.4" y="47.5" textLength="8.4" lengthAdjust="spacing" fill="#ffff00">|</text>
<text x="1385.2" y="47.5" textLength="16.8" lengthAdjust="spacing" fill="#ffff00">&#39;_</text>
<text x="1410.4" y="47.5" textLength="8.4" lengthAdjust="spacing" fill="#ffff00">&#39;</text>
<text x="1427.2" y="47.5" textLength="8.4" lengthAdjust="spacing" fill="#ffff00">_</text>
<text x="1444.0" y="47.5" textLength="16.8" lengthAdjust="spacing" fill="#ffff00">\/</text>
<text x="1469.2" y="47.5" textLength="25.2" lengthAdjust="spacing" fill="#ffff00">__|</text>
<text x="16.0" y="65.5" textLength="33.6" lengthAdjust="spacing" fill="#ffa500">MEM:</text>
<text x="108.4" y="65.5" textLength="25.2" lengthAdjust="spacing" fill="#ffff00">71%</text>
<text x="293.2" y="65.5" textLength="42.0" lengthAdjust="spacing" fill="#00ffff">&lt;esc&gt;</text>
<text x="368.8" y="65.5" textLength="33.6" lengthAdjust="spacing" fill="#808080">back</text>
<text x="444.4" y="65.5" textLength="25.2" lengthAdjust="spacing" fill="#00ffff">&lt;b&gt;</text>
<text x="520.0" y="65.5" textLength="33.6" lengthAdjust="spacing" fill="#808080">boot</text>
<text x="730.0" y="65.5" textLength="25.2" lengthAdjust="spacing" fill="#00ffff">&lt;s&gt;</text>
<text x="763.6" y="65.5" textLength="33.6" lengthAdjust="spacing" fill="#808080">show</text>
<text x="805.6" y="65.5" textLength="50.4" lengthAdjust="spacing" fill="#808080">unused</text>
<text x="864.4" y="65.5" textLength="33.6" lengthAdjust="spacing" fill="#808080">sims</text>
<text x="940.0" y="65.5" textLength="25.2" lengthAdjust="spacing" fill="#00ffff">&lt;o&gt;</text>
<text x="1040.8" y="65.5" textLength="67.2" lengthAdjust="spacing" fill="#808080">overview</text>
<text x="1116.4" y="65.5" textLength="25.2" lengthAdjust="spacing" fill="#808080">key</text>
<text x="1318.0" y="65.5" textLength="25.2" lengthAdjust="spacing" fill="#ffff00">\__</text>
<text x="1351.6" y="65.5" textLength="8.4" lengthAdjust="spacing" fill="#ffff00">\</text>
<text x="1368.4" y="65.5" textLength="8.4" lengthAdjust="spacing" fill="#ffff00">|</text>
<text x="1385.2" y="65.5" textLength="8.4" lengthAdjust="spacing" fill="#ffff00">|</text>
<text x="1402.0" y="65.5" textLength="8.4" lengthAdjust="spacing" fill="#ffff00">|</text>
<text x="1418.8" y="65.5" textLength="8.4" lengthAdjust="spacing" fill="#ffff00">|</text>
<text x="1435.6" y="65.5" textLength="8.4" lengthAdjust="spacing" fill="#ffff00">|</text>
<text x="1452.4" y="65.5" textLength="25.2" lengthAdjust="spacing" fill="#ffff00">\__</text>
<text x="1486.0" y="65.5" textLength="8.4" lengthAdjust="spacing" fill="#ffff00">\</text>
<text x="16.0" y="83.5" textLength="42.0" lengthAdjust="spacing" fill="#ffa500">DISK:</text>
<text x="108.4" y="83.5" textLength="25.2" lengthAdjust="spacing" fill="#ffffff">64%</text>
<text x="142.0" y="83.5" textLength="50.4" lengthAdjust="spacing" fill="#808080">(212.0</text>
<text x="200.8" y="83.5" textLength="25.2" lengthAdjust="spacing" fill="#808080">GiB</text>
<text x="234.4" y="83.5" textLength="42.0" lengthAdjust="spacing" fill="#808080">free)</text>
<text x="293.2" y="83.5" textLength="25.2" lengthAdjust="spacing" fill="#00ffff">&lt;r&gt;</text>
<text x="368.8" y="83.5" textLength="58.8" lengthAdjust="spacing" fill="#808080">refresh</text>
<text x="444.4" y="83.5" textLength="67.2" lengthAdjust="spacing" fill="#00ffff">&lt;ctrl+k&gt;</text>
<text x="520.0" y="83.5" textLength="67.2" lengthAdjust="spacing" fill="#808080">shutdown</text>
<text x="730.0" y="83.5" textLength="25.2" lengthAdjust="spacing" fill="#00ffff">&lt;/&gt;</text>
<text x="763.6" y="83.5" textLength="50.4" lengthAdjust="spacing" fill="#808080">filter</text>
<text x="1318.0" y="83.5" textLength="75.6" lengthAdjust="spacing" fill="#ffff00">|___/_|_|</text>
<text x="1402.0" y="83.5" textLength="25.2" lengthAdjust="spacing" fill="#ffff00">|_|</text>
<text x="1435.6" y="83.5" textLength="58.8" lengthAdjust="spacing" fill="#ffff00">|_|___/</text>
<text x="293.2" y="101.5" textLength="67.2" lengthAdjust="spacing" fill="#00ffff">&lt;ctrl+c&gt;</text>
<text x="368.8" y="101.5" textLength="33.6" lengthAdjust="spacing" fill="#808080">quit</text>
<text x="444.4" y="101.5" textLength="67.2" lengthAdjust="spacing" fill="#00ffff">&lt;ctrl+e&gt;</text>
<text x="520.0" y="101.5" textLength="33.6" lengthAdjust="spacing" fill="#808080">wipe</text>
<text x="562.0" y="101.5" textLength="33.6" lengthAdjust="spacing" fill="#808080">data</text>
<text x="604.0" y="101.5" textLength="42.0" lengthAdjust="spacing" fill="#808080">(keep</text>
<text x="654.4" y="101.5" textLength="58.8" lengthAdjust="spacing" fill="#808080">device)</text>
<text x="730.0" y="101.5" textLength="25.2" lengthAdjust="spacing" fill="#00ffff">&lt;p&gt;</text>
<text x="763.6" y="101.5" textLength="33.6" lengthAdjust="spacing" fill="#808080">pair</text>
<text x="805.6" y="101.5" textLength="42.0" lengthAdjust="spacing" fill="#808080">(ios)</text>
<text x="1444.0" y="101.5" textLength="50.4" lengthAdjust="spacing" fill="#808080">v0.1.0</text>
<text x="444.4" y="119.5" textLength="67.2" lengthAdjust="spacing" fill="#00ffff">&lt;ctrl+d&gt;</text>
<text x="520.0" y="119.5" textLength="50.4" lengthAdjust="spacing" fill="#808080">delete</text>
<text x="578.8" y="119.5" textLength="50.4" lengthAdjust="spacing" fill="#808080">device</text>
<text x="730.0" y="119.5" textLength="25.2" lengthAdjust="spacing" fill="#00ffff">&lt;w&gt;</text>
<text x="763.6" y="119.5" textLength="58.8" lengthAdjust="spacing" fill="#808080">connect</text>
<text x="830.8" y="119.5" textLength="33.6" lengthAdjust="spacing" fill="#808080">wifi</text>
<text x="16.0" y="137.5" textLength="604.8" lengthAdjust="spacing" fill="#808080">╔═══════════════════════════════════════════════════════════════════════</text>
<text x="629.2" y="137.5" textLength="58.8" lengthAdjust="spacing" fill="#ff00ff">devices</text>
<text x="696.4" y="137.5" textLength="25.2" lengthAdjust="spacing" fill="#ff00ff">[8]</text>
<text x="730.0" y="137.5" textLength="16.8" lengthAdjust="spacing" fill="#808080">+1</text>
<text x="755.2" y="137.5" textLength="50.4" lengthAdjust="spacing" fill="#808080">unused</text>
<text x="814.0" y="137.5" textLength="33.6" lengthAdjust="spacing" fill="#808080">sims</text>
<text x="856.0" y="137.5" textLength="25.2" lengthAdjust="spacing" fill="#808080">(s)</text>
<text x="889.6" y="137.5" textLength="604.8" lengthAdjust="spacing" fill="#808080">═══════════════════════════════════════════════════════════════════════╗</text>
<text x="16.0" y="155.5" textLength="8.4" lengthAdjust="spacing" fill="#808080">║</text>
<text x="32.8" y="155.5" textLength="67.2" lengthAdjust="spacing" fill="#00ffff" font-weight="bold">PLATFORM</text>
<text x="167.2" y="155.5" textLength="25.2" lengthAdjust="spacing" fill="#00ffff" font-weight="bold">VIA</text>
<text x="268.0" y="155.5" textLength="33.6" lengthAdjust="spacing" fill="#00ffff" font-weight="bold">NAME</text>
<text x="494.8" y="155.5" textLength="42.0" lengthAdjust="spacing" fill="#00ffff" font-weight="bold">MODEL</text>
<text x="671.2" y="155.5" textLength="58.8" lengthAdjust="spacing" fill="#00ffff" font-weight="bold">RUNTIME</text>
<text x="822.4" y="155.5" textLength="50.4" lengthAdjust="spacing" fill="#00ffff" font-weight="bold">STATE↑</text>
<text x="965.2" y="155.5" textLength="33.6" lengthAdjust="spacing" fill="#00ffff" font-weight="bold">LAST</text>
<text x="1099.6" y="155.5" textLength="16.8" lengthAdjust="spacing" fill="#00ffff" font-weight="bold">ID</text>
<text x="1486.0" y="155.5" textLength="8.4" lengthAdjust="spacing" fill="#808080">║</text>
<rect x="32.8" y="160.0" width="8.9" height="18.0" fill="#008b8b"/>
<rect x="41.2" y="160.0" width="8.9" height="18.0" fill="#008b8b"/>
<rect x="49.6" y="160.0" width="8.9" height="18.0" fill="#008b8b"/>
<rect x="58.0" y="160.0" width="8.9" height="18.0" fill="#008b8b"/>
<rect x="66.4" y="160.0" width="8.9" height="18.0" fill="#008b8b"/>
<rect x="74.8" y="160.0" width="8.9" height="18.0" fill="#008b8b"/>
<rect x="83.2" y="160.0" width="8.9" height="18.0" fill="#008b8b"/>
<rect x="91.6" y="160.0" width="8.9" height="18.0" fill="#008b8b"/>
<rect x="100.0" y="160.0" width="8.9" height="18.0" fill="#008b8b"/>
<rect x="108.4" y="160.0" width="8.9" height="18.0" fill="#008b8b"/>
<rect x="116.8" y="160.0" width="8.9" height="18.0" fill="#008b8b"/>
<rect x="125.2" y="160.0" width="8.9" height="18.0" fill="#008b8b"/>
<rect x="133.6" y="160.0" width="8.9" height="18.0" fill="#008b8b"/>
<rect x="142.0" y="160.0" width="8.9" height="18.0" fill="#008b8b"/>
<rect x="150.4" y="160.0" width="8.9" height="18.0" fill="#008b8b"/>
<rect x="158.8" y="160.0" width="8.9" height="18.0" fill="#008b8b"/>
<rect x="167.2" y="160.0" width="8.9" height="18.0" fill="#008b8b"/>
<rect x="175.6" y="160.0" width="8.9" height="18.0" fill="#008b8b"/>
<rect x="184.0" y="160.0" width="8.9" height="18.0" fill="#008b8b"/>
<rect x="192.4" y="160.0" width="8.9" height="18.0" fill="#008b8b"/>
<rect x="200.8" y="160.0" width="8.9" height="18.0" fill="#008b8b"/>
<rect x="209.2" y="160.0" width="8.9" height="18.0" fill="#008b8b"/>
<rect x="217.6" y="160.0" width="8.9" height="18.0" fill="#008b8b"/>
<rect x="226.0" y="160.0" width="8.9" height="18.0" fill="#008b8b"/>
<rect x="234.4" y="160.0" width="8.9" height="18.0" fill="#008b8b"/>
<rect x="242.8" y="160.0" width="8.9" height="18.0" fill="#008b8b"/>
<rect x="251.2" y="160.0" width="8.9" height="18.0" fill="#008b8b"/>
<rect x="259.6" y="160.0" width="8.9" height="18.0" fill="#008b8b"/>
<rect x="268.0" y="160.0" width="8.9" height="18.0" fill="#008b8b"/>
<rect x="276.4" y="160.0" width="8.9" height="18.0" fill="#008b8b"/>
<rect x="284.8" y="160.0" width="8.9" height="18.0" fill="#008b8b"/>
<rect x="293.2" y="160.0" width="8.9" height="18.0" fill="#008b8b"/>
<rect x="301.6" y="160.0" width="8.9" height="18.0" fill="#008b8b"/>
<rect x="310.0" y="160.0" width="8.9" height="18.0" fill="#008b8b"/>
<rect x="318.4" y="160.0" width="8.9" height="18.0" fill="#008b8b"/>
<rect x="326.8" y="160.0" width="8.9" height="18.0" fill="#008b8b"/>
<rect x="335.2" y="160.0" width="8.9" height="18.0" fill="#008b8b"/>
<rect x="343.6" y="160.0" width="8.9" height="18.0" fill="#008b8b"/>
<rect x="352.0" y="160.0" width="8.9" height="18.0" fill="#008b8b"/>
<rect x="360.4" y="160.0" width="8.9" height="18.0" fill="#008b8b"/>
<rect x="368.8" y="160.0" width="8.9" height="18.0" fill="#008b8b"/>
<rect x="377.2" y="160.0" width="8.9" height="18.0" fill="#008b8b"/>
<rect x="385.6" y="160.0" width="8.9" height="18.0" fill="#008b8b"/>
<rect x="394.0" y="160.0" width="8.9" height="18.0" fill="#008b8b"/>
<rect x="402.4" y="160.0" width="8.9" height="18.0" fill="#008b8b"/>
<rect x="410.8" y="160.0" width="8.9" height="18.0" fill="#008b8b"/>
<rect x="419.2" y="160.0" width="8.9" height="18.0" fill="#008b8b"/>
<rect x="427.6" y="160.0" width="8.9" height="18.0" fill="#008b8b"/>
<rect x="436.0" y="160.0" width="8.9" height="18.0" fill="#008b8b"/>
<rect x="444.4" y="160.0" width="8.9" height="18.0" fill="#008b8b"/>
<rect x="452.8" y="160.0" width="8.9" height="18.0" fill="#008b8b"/>
<rect x="461.2" y="160.0" width="8.9" height="18.0" fill="#008b8b"/>
<rect x="469.6" y="160.0" width="8.9" height="18.0" fill="#008b8b"/>
<rect x="478.0" y="160.0" width="8.9" height="18.0" fill="#008b8b"/>
<rect x="486.4" y="160.0" width="8.9" height="18.0" fill="#008b8b"/>
<rect x="494.8" y="160.0" width="8.9" height="18.0" fill="#008b8b"/>
<rect x="503.2" y="160.0" width="8.9" height="18.0" fill="#008b8b"/>
<rect x="511.6" y="160.0" width="8.9" height="18.0" fill="#008b8b"/>
<rect x="520.0" y="160.0" width="8.9" height="18.0" fill="#008b8b"/>
<rect x="528.4" y="160.0" width="8.9" height="18.0" fill="#008b8b"/>
<rect x="536.8" y="160.0" width="8.9" height="18.0" fill="#008b8b"/>
<rect x="545.2" y="160.0" width="8.9" height="18.0" fill="#008b8b"/>
<rect x="553.6" y="160.0" width="8.9" height="18.0" fill="#008b8b"/>
<rect x="562.0" y="160.0" width="8.9" height="18.0" fill="#008b8b"/>
<rect x="570.4" y="160.0" width="8.9" height="18.0" fill="#008b8b"/>
<rect x="578.8" y="160.0" width="8.9" height="18.0" fill="#008b8b"/>
<rect x="587.2" y="160.0" width="8.9" height="18.0" fill="#008b8b"/>
<rect x="595.6" y="160.0" width="8.9" height="18.0" fill="#008b8b"/>
<rect x="604.0" y="160.0" width="8.9" height="18.0" fill="#008b8b"/>
<rect x="612.4" y="160.0" width="8.9" height="18.0" fill="#008b8b"/>
<rect x="620.8" y="160.0" width="8.9" height="18.0" fill="#008b8b"/>
<rect x="629.2" y="160.0" width="8.9" height="18.0" fill="#008b8b"/>
<rect x="637.6" y="160.0" width="8.9" height="18.0" fill="#008b8b"/>
<rect x="646.0" y="160.0" width="8.9" height="18.0" fill="#008b8b"/>
<rect x="654.4" y="160.0" width="8.9" height="18.0" fill="#008b8b"/>
<rect x="662.8" y="160.0" width="8.9" height="18.0" fill="#008b8b"/>
<rect x="671.2" y="160.0" width="8.9" height="18.0" fill="#008b8b"/>
<rect x="679.6" y="160.0" width="8.9" height="18.0" fill="#008b8b"/>
<rect x="688.0" y="160.0" width="8.9" height="18.0" fill="#008b8b"/>
<rect x="696.4" y="160.0" width="8.9" height="18.0" fill="#008b8b"/>
<rect x="704.8" y="160.0" width="8.9" height="18.0" fill="#008b8b"/>
<rect x="713.2" y="160.0" width="8.9" height="18.0" fill="#008b8b"/>
<rect x="721.6" y="160.0" width="8.9" height="18.0" fill="#008b8b"/>
<rect x="730.0" y="160.0" width="8.9" height="18.0" fill="#008b8b"/>
<rect x="738.4" y="160.0" width="8.9" height="18.0" fill="#008b8b"/>
<rect x="746.8" y="160.0" width="8.9" height="18.0" fill="#008b8b"/>
<rect x="755.2" y="160.0" width="8.9" height="18.0" fill="#008b8b"/>
<rect x="763.6" y="160.0" width="8.9" height="18.0" fill="#008b8b"/>
<rect x="772.0" y="160.0" width="8.9" height="18.0" fill="#008b8b"/>
<rect x="780.4" y="160.0" width="8.9" height="18.0" fill="#008b8b"/>
<rect x="788.8" y="160.0" width="8.9" height="18.0" fill="#008b8b"/>
<rect x="797.2" y="160.0" width="8.9" height="18.0" fill="#008b8b"/>
<rect x="805.6" y="160.0" width="8.9" height="18.0" fill="#008b8b"/>
<rect x="814.0" y="160.0" width="8.9" height="18.0" fill="#008b8b"/>
<rect x="822.4" y="160.0" width="8.9" height="18.0" fill="#008b8b"/>
<rect x="830.8" y="160.0" width="8.9" height="18.0" fill="#008b8b"/>
<rect x="839.2" y="160.0" width="8.9" height="18.0" fill="#008b8b"/>
<rect x="847.6" y="160.0" width="8.9" height="18.0" fill="#008b8b"/>
<rect x="856.0" y="160.0" width="8.9" height="18.0" fill="#008b8b"/>
<rect x="864.4" y="160.0" width="8.9" height="18.0" fill="#008b8b"/>
<rect x="872.8" y="160.0" width="8.9" height="18.0" fill="#008b8b"/>
<rect x="881.2" y="160.0" width="8.9" height="18.0" fill="#008b8b"/>
<rect x="889.6" y="160.0" width="8.9" height="18.0" fill="#008b8b"/>
<rect x="898.0" y="160.0" width="8.9" height="18.0" fill="#008b8b"/>
<rect x="906.4" y="160.0" width="8.9" height="18.0" fill="#008b8b"/>
<rect x="914.8" y="160.0" width="8.9" height="18.0" fill="#008b8b"/>
<rect x="923.2" y="160.0" width="8.9" height="18.0" fill="#008b8b"/>
<rect x="931.6" y="160.0" width="8.9" height="18.0" fill="#008b8b"/>
<rect x="940.0" y="160.0" width="8.9" height="18.0" fill="#008b8b"/>
<rect x="948.4" y="160.0" width="8.9" height="18.0" fill="#008b8b"/>
<rect x="956.8" y="160.0" width="8.9" height="18.0" fill="#008b8b"/>
<rect x="965.2" y="160.0" width="8.9" height="18.0" fill="#008b8b"/>
<rect x="973.6" y="160.0" width="8.9" height="18.0" fill="#008b8b"/>
<rect x="982.0" y="160.0" width="8.9" height="18.0" fill="#008b8b"/>
<rect x="990.4" y="160.0" width="8.9" height="18.0" fill="#008b8b"/>
<rect x="998.8" y="160.0" width="8.9" height="18.0" fill="#008b8b"/>
<rect x="1007.2" y="160.0" width="8.9" height="18.0" fill="#008b8b"/>
<rect x="1015.6" y="160.0" width="8.9" height="18.0" fill="#008b8b"/>
<rect x="1024.0" y="160.0" width="8.9" height="18.0" fill="#008b8b"/>
<rect x="1032.4" y="160.0" width="8.9" height="18.0" fill="#008b8b"/>
<rect x="1040.8" y="160.0" width="8.9" height="18.0" fill="#008b8b"/>
<rect x="1049.2" y="160.0" width="8.9" height="18.0" fill="#008b8b"/>
<rect x="1057.6" y="160.0" width="8.9" height="18.0" fill="#008b8b"/>
<rect x="1066.0" y="160.0" width="8.9" height="18.0" fill="#008b8b"/>
<rect x="1074.4" y="160.0" width="8.9" height="18.0" fill="#008b8b"/>
<rect x="1082.8" y="160.0" width="8.9" height="18.0" fill="#008b8b"/>
<rect x="1091.2" y="160.0" width="8.9" height="18.0" fill="#008b8b"/>
<rect x="1099.6" y="160.0" width="8.9" height="18.0" fill="#008b8b"/>
<rect x="1108.0" y="160.0" width="8.9" height="18.0" fill="#008b8b"/>
<rect x="1116.4" y="160.0" width="8.9" height="18.0" fill="#008b8b"/>
<rect x="1124.8" y="160.0" width="8.9" height="18.0" fill="#008b8b"/>
<rect x="1133.2" y="160.0" width="8.9" height="18.0" fill="#008b8b"/>
<rect x="1141.6" y="160.0" width="8.9" height="18.0" fill="#008b8b"/>
<rect x="1150.0" y="160.0" width="8.9" height="18.0" fill="#008b8b"/>
<rect x="1158.4" y="160.0" width="8.9" height="18.0" fill="#008b8b"/>
<rect x="1166.8" y="160.0" width="8.9" height="18.0" fill="#008b8b"/>
<rect x="1175.2" y="160.0" width="8.9" height="18.0" fill="#008b8b"/>
<rect x="1183.6" y="160.0" width="8.9" height="18.0" fill="#008b8b"/>
<rect x="1192.0" y="160.0" width="8.9" height="18.0" fill="#008b8b"/>
<rect x="1200.4" y="160.0" width="8.9" height="18.0" fill="#008b8b"/>
<rect x="1208.8" y="160.0" width="8.9" height="18.0" fill="#008b8b"/>
<rect x="1217.2" y="160.0" width="8.9" height="18.0" fill="#008b8b"/>
<rect x="1225.6" y="160.0" width="8.9" height="18.0" fill="#008b8b"/>
<rect x="1234.0" y="160.0" width="8.9" height="18.0" fill="#008b8b"/>
<rect x="1242.4" y="160.0" width="8.9" height="18.0" fill="#008b8b"/>
<rect x="1250.8" y="160.0" width="8.9" height="18.0" fill="#008b8b"/>
<rect x="1259.2" y="160.0" width="8.9" height="18.0" fill="#008b8b"/>
<rect x="1267.6" y="160.0" width="8.9" height="18.0" fill="#008b8b"/>
<rect x="1276.0" y="160.0" width="8.9" height="18.0" fill="#008b8b"/>
<rect x="1284.4" y="160.0" width="8.9" height="18.0" fill="#008b8b"/>
<rect x="1292.8" y="160.0" width="8.9" height="18.0" fill="#008b8b"/>
<rect x="1301.2" y="160.0" width="8.9" height="18.0" fill="#008b8b"/>
<rect x="1309.6" y="160.0" width="8.9" height="18.0" fill="#008b8b"/>
<rect x="1318.0" y="160.0" width="8.9" height="18.0" fill="#008b8b"/>
<rect x="1326.4" y="160.0" width="8.9" height="18.0" fill="#008b8b"/>
<rect x="1334.8" y="160.0" width="8.9" height="18.0" fill="#008b8b"/>
<rect x="1343.2" y="160.0" width="8.9" height="18.0" fill="#008b8b"/>
<rect x="1351.6" y="160.0" width="8.9" height="18.0" fill="#008b8b"/>
<rect x="1360.0" y="160.0" width="8.9" height="18.0" fill="#008b8b"/>
<rect x="1368.4" y="160.0" width="8.9" height="18.0" fill="#008b8b"/>
<rect x="1376.8" y="160.0" width="8.9" height="18.0" fill="#008b8b"/>
<rect x="1385.2" y="160.0" width="8.9" height="18.0" fill="#008b8b"/>
<rect x="1393.6" y="160.0" width="8.9" height="18.0" fill="#008b8b"/>
<rect x="1402.0" y="160.0" width="8.9" height="18.0" fill="#008b8b"/>
<rect x="1410.4" y="160.0" width="8.9" height="18.0" fill="#008b8b"/>
<rect x="1418.8" y="160.0" width="8.9" height="18.0" fill="#008b8b"/>
<rect x="1427.2" y="160.0" width="8.9" height="18.0" fill="#008b8b"/>
<rect x="1435.6" y="160.0" width="8.9" height="18.0" fill="#008b8b"/>
<rect x="1444.0" y="160.0" width="8.9" height="18.0" fill="#008b8b"/>
<rect x="1452.4" y="160.0" width="8.9" height="18.0" fill="#008b8b"/>
<rect x="1460.8" y="160.0" width="8.9" height="18.0" fill="#008b8b"/>
<rect x="1469.2" y="160.0" width="8.9" height="18.0" fill="#008b8b"/>
<text x="16.0" y="173.5" textLength="8.4" lengthAdjust="spacing" fill="#808080">║</text>
<text x="32.8" y="173.5" textLength="25.2" lengthAdjust="spacing" fill="#000000">ios</text>
<text x="167.2" y="173.5" textLength="25.2" lengthAdjust="spacing" fill="#000000">sim</text>
<text x="268.0" y="173.5" textLength="50.4" lengthAdjust="spacing" fill="#000000">iPhone</text>
<text x="326.8" y="173.5" textLength="16.8" lengthAdjust="spacing" fill="#000000">17</text>
<text x="352.0" y="173.5" textLength="25.2" lengthAdjust="spacing" fill="#000000">Pro</text>
<text x="671.2" y="173.5" textLength="25.2" lengthAdjust="spacing" fill="#000000">iOS</text>
<text x="704.8" y="173.5" textLength="33.6" lengthAdjust="spacing" fill="#000000">26.5</text>
<text x="822.4" y="173.5" textLength="50.4" lengthAdjust="spacing" fill="#000000">Booted</text>
<text x="965.2" y="173.5" textLength="33.6" lengthAdjust="spacing" fill="#000000">just</text>
<text x="1007.2" y="173.5" textLength="25.2" lengthAdjust="spacing" fill="#000000">now</text>
<text x="1099.6" y="173.5" textLength="302.4" lengthAdjust="spacing" fill="#000000">0728E045-9CAF-41BD-B724-54A8850D9327</text>
<text x="1486.0" y="173.5" textLength="8.4" lengthAdjust="spacing" fill="#808080">║</text>
<text x="16.0" y="191.5" textLength="8.4" lengthAdjust="spacing" fill="#808080">║</text>
<text x="32.8" y="191.5" textLength="58.8" lengthAdjust="spacing" fill="#cdd6f4">android</text>
<text x="167.2" y="191.5" textLength="25.2" lengthAdjust="spacing" fill="#cdd6f4">avd</text>
<text x="268.0" y="191.5" textLength="117.6" lengthAdjust="spacing" fill="#cdd6f4">Pixel_7_API_35</text>
<text x="671.2" y="191.5" textLength="25.2" lengthAdjust="spacing" fill="#cdd6f4">API</text>
<text x="704.8" y="191.5" textLength="16.8" lengthAdjust="spacing" fill="#cdd6f4">35</text>
<text x="822.4" y="191.5" textLength="50.4" lengthAdjust="spacing" fill="#008000">Booted</text>
<text x="965.2" y="191.5" textLength="16.8" lengthAdjust="spacing" fill="#808080">3m</text>
<text x="990.4" y="191.5" textLength="25.2" lengthAdjust="spacing" fill="#808080">ago</text>
<text x="1099.6" y="191.5" textLength="117.6" lengthAdjust="spacing" fill="#808080">Pixel_7_API_35</text>
<text x="1486.0" y="191.5" textLength="8.4" lengthAdjust="spacing" fill="#808080">║</text>
<text x="16.0" y="209.5" textLength="8.4" lengthAdjust="spacing" fill="#808080">║</text>
<text x="32.8" y="209.5" textLength="25.2" lengthAdjust="spacing" fill="#cdd6f4">ios</text>
<text x="167.2" y="209.5" textLength="33.6" lengthAdjust="spacing" fill="#cdd6f4">wifi</text>
<text x="268.0" y="209.5" textLength="16.8" lengthAdjust="spacing" fill="#cdd6f4">my</text>
<text x="293.2" y="209.5" textLength="50.4" lengthAdjust="spacing" fill="#cdd6f4">iPhone</text>
<text x="494.8" y="209.5" textLength="50.4" lengthAdjust="spacing" fill="#808080">iPhone</text>
<text x="553.6" y="209.5" textLength="16.8" lengthAdjust="spacing" fill="#808080">14</text>
<text x="578.8" y="209.5" textLength="25.2" lengthAdjust="spacing" fill="#808080">Pro</text>
<text x="671.2" y="209.5" textLength="25.2" lengthAdjust="spacing" fill="#cdd6f4">iOS</text>
<text x="704.8" y="209.5" textLength="33.6" lengthAdjust="spacing" fill="#cdd6f4">27.0</text>
<text x="822.4" y="209.5" textLength="75.6" lengthAdjust="spacing" fill="#ff0000">Connected</text>
<text x="965.2" y="209.5" textLength="25.2" lengthAdjust="spacing" fill="#808080">20m</text>
<text x="998.8" y="209.5" textLength="25.2" lengthAdjust="spacing" fill="#808080">ago</text>
<text x="1099.6" y="209.5" textLength="302.4" lengthAdjust="spacing" fill="#808080">BBBBC218-A593-5E01-9D44-ACDCFDFBC7AF</text>
<text x="1486.0" y="209.5" textLength="8.4" lengthAdjust="spacing" fill="#808080">║</text>
<text x="16.0" y="227.5" textLength="8.4" lengthAdjust="spacing" fill="#808080">║</text>
<text x="32.8" y="227.5" textLength="58.8" lengthAdjust="spacing" fill="#cdd6f4">android</text>
<text x="167.2" y="227.5" textLength="25.2" lengthAdjust="spacing" fill="#cdd6f4">usb</text>
<text x="268.0" y="227.5" textLength="16.8" lengthAdjust="spacing" fill="#cdd6f4">SM</text>
<text x="293.2" y="227.5" textLength="42.0" lengthAdjust="spacing" fill="#cdd6f4">S928N</text>
<text x="494.8" y="227.5" textLength="25.2" lengthAdjust="spacing" fill="#808080">e1q</text>
<text x="671.2" y="227.5" textLength="58.8" lengthAdjust="spacing" fill="#cdd6f4">Android</text>
<text x="738.4" y="227.5" textLength="16.8" lengthAdjust="spacing" fill="#cdd6f4">15</text>
<text x="822.4" y="227.5" textLength="75.6" lengthAdjust="spacing" fill="#ff0000">Connected</text>
<text x="965.2" y="227.5" textLength="8.4" lengthAdjust="spacing" fill="#808080">-</text>
<text x="1099.6" y="227.5" textLength="92.4" lengthAdjust="spacing" fill="#808080">R3CT40ABCDE</text>
<text x="1486.0" y="227.5" textLength="8.4" lengthAdjust="spacing" fill="#808080">║</text>
<text x="16.0" y="245.5" textLength="8.4" lengthAdjust="spacing" fill="#808080">║</text>
<text x="32.8" y="245.5" textLength="58.8" lengthAdjust="spacing" fill="#cdd6f4">android</text>
<text x="167.2" y="245.5" textLength="33.6" lengthAdjust="spacing" fill="#cdd6f4">wifi</text>
<text x="268.0" y="245.5" textLength="42.0" lengthAdjust="spacing" fill="#cdd6f4">Pixel</text>
<text x="318.4" y="245.5" textLength="8.4" lengthAdjust="spacing" fill="#cdd6f4">7</text>
<text x="494.8" y="245.5" textLength="58.8" lengthAdjust="spacing" fill="#808080">panther</text>
<text x="671.2" y="245.5" textLength="58.8" lengthAdjust="spacing" fill="#cdd6f4">Android</text>
<text x="738.4" y="245.5" textLength="16.8" lengthAdjust="spacing" fill="#cdd6f4">14</text>
<text x="822.4" y="245.5" textLength="75.6" lengthAdjust="spacing" fill="#ff0000">Connected</text>
<text x="965.2" y="245.5" textLength="8.4" lengthAdjust="spacing" fill="#808080">-</text>
<text x="1099.6" y="245.5" textLength="142.8" lengthAdjust="spacing" fill="#808080">192.168.0.23:5555</text>
<text x="1486.0" y="245.5" textLength="8.4" lengthAdjust="spacing" fill="#808080">║</text>
<text x="16.0" y="263.5" textLength="8.4" lengthAdjust="spacing" fill="#808080">║</text>
<text x="32.8" y="263.5" textLength="25.2" lengthAdjust="spacing" fill="#cdd6f4">ios</text>
<text x="167.2" y="263.5" textLength="25.2" lengthAdjust="spacing" fill="#cdd6f4">usb</text>
<text x="268.0" y="263.5" textLength="16.8" lengthAdjust="spacing" fill="#cdd6f4">QA</text>
<text x="293.2" y="263.5" textLength="50.4" lengthAdjust="spacing" fill="#cdd6f4">iPhone</text>
<text x="494.8" y="263.5" textLength="50.4" lengthAdjust="spacing" fill="#808080">iPhone</text>
<text x="553.6" y="263.5" textLength="16.8" lengthAdjust="spacing" fill="#808080">15</text>
<text x="671.2" y="263.5" textLength="25.2" lengthAdjust="spacing" fill="#cdd6f4">iOS</text>
<text x="704.8" y="263.5" textLength="50.4" lengthAdjust="spacing" fill="#cdd6f4">17.5.1</text>
<text x="822.4" y="263.5" textLength="67.2" lengthAdjust="spacing" fill="#ff0000">Unpaired</text>
<text x="965.2" y="263.5" textLength="8.4" lengthAdjust="spacing" fill="#808080">-</text>
<text x="1099.6" y="263.5" textLength="302.4" lengthAdjust="spacing" fill="#808080">A0B516A2-89CC-5753-BB6A-0BEB0CB28622</text>
<text x="1486.0" y="263.5" textLength="8.4" lengthAdjust="spacing" fill="#808080">║</text>
<text x="16.0" y="281.5" textLength="8.4" lengthAdjust="spacing" fill="#808080">║</text>
<text x="32.8" y="281.5" textLength="25.2" lengthAdjust="spacing" fill="#cdd6f4">ios</text>
<text x="167.2" y="281.5" textLength="25.2" lengthAdjust="spacing" fill="#cdd6f4">sim</text>
<text x="268.0" y="281.5" textLength="50.4" lengthAdjust="spacing" fill="#cdd6f4">iPhone</text>
<text x="326.8" y="281.5" textLength="16.8" lengthAdjust="spacing" fill="#cdd6f4">16</text>
<text x="352.0" y="281.5" textLength="25.2" lengthAdjust="spacing" fill="#cdd6f4">Pro</text>
<text x="385.6" y="281.5" textLength="25.2" lengthAdjust="spacing" fill="#cdd6f4">Max</text>
<text x="671.2" y="281.5" textLength="25.2" lengthAdjust="spacing" fill="#cdd6f4">iOS</text>
<text x="704.8" y="281.5" textLength="33.6" lengthAdjust="spacing" fill="#cdd6f4">18.5</text>
<text x="822.4" y="281.5" textLength="67.2" lengthAdjust="spacing" fill="#808080">Shutdown</text>
<text x="965.2" y="281.5" textLength="16.8" lengthAdjust="spacing" fill="#808080">6h</text>
<text x="990.4" y="281.5" textLength="25.2" lengthAdjust="spacing" fill="#808080">ago</text>
<text x="1099.6" y="281.5" textLength="302.4" lengthAdjust="spacing" fill="#808080">81EA668E-D91C-420A-9FD1-7CED51248DD8</text>
<text x="1486.0" y="281.5" textLength="8.4" lengthAdjust="spacing" fill="#808080">║</text>
<text x="16.0" y="299.5" textLength="8.4" lengthAdjust="spacing" fill="#808080">║</text>
<text x="32.8" y="299.5" textLength="58.8" lengthAdjust="spacing" fill="#cdd6f4">android</text>
<text x="167.2" y="299.5" textLength="25.2" lengthAdjust="spacing" fill="#cdd6f4">avd</text>
<text x="268.0" y="299.5" textLength="159.6" lengthAdjust="spacing" fill="#cdd6f4">Pixel_Tablet_API_36</text>
<text x="671.2" y="299.5" textLength="25.2" lengthAdjust="spacing" fill="#cdd6f4">API</text>
<text x="704.8" y="299.5" textLength="16.8" lengthAdjust="spacing" fill="#cdd6f4">36</text>
<text x="822.4" y="299.5" textLength="67.2" lengthAdjust="spacing" fill="#808080">Shutdown</text>
<text x="965.2" y="299.5" textLength="16.8" lengthAdjust="spacing" fill="#808080">2d</text>
<text x="990.4" y="299.5" textLength="25.2" lengthAdjust="spacing" fill="#808080">ago</text>
<text x="1099.6" y="299.5" textLength="159.6" lengthAdjust="spacing" fill="#808080">Pixel_Tablet_API_36</text>
<text x="1486.0" y="299.5" textLength="8.4" lengthAdjust="spacing" fill="#808080">║</text>
<text x="16.0" y="317.5" textLength="8.4" lengthAdjust="spacing" fill="#808080">║</text>
<text x="1486.0" y="317.5" textLength="8.4" lengthAdjust="spacing" fill="#808080">║</text>
<text x="16.0" y="335.5" textLength="8.4" lengthAdjust="spacing" fill="#808080">║</text>
<text x="1486.0" y="335.5" textLength="8.4" lengthAdjust="spacing" fill="#808080">║</text>
<text x="16.0" y="353.5" textLength="8.4" lengthAdjust="spacing" fill="#808080">║</text>
<text x="1486.0" y="353.5" textLength="8.4" lengthAdjust="spacing" fill="#808080">║</text>
<text x="16.0" y="371.5" textLength="8.4" lengthAdjust="spacing" fill="#808080">║</text>
<text x="1486.0" y="371.5" textLength="8.4" lengthAdjust="spacing" fill="#808080">║</text>
<text x="16.0" y="389.5" textLength="8.4" lengthAdjust="spacing" fill="#808080">║</text>
<text x="1486.0" y="389.5" textLength="8.4" lengthAdjust="spacing" fill="#808080">║</text>
<text x="16.0" y="407.5" textLength="8.4" lengthAdjust="spacing" fill="#808080">║</text>
<text x="1486.0" y="407.5" textLength="8.4" lengthAdjust="spacing" fill="#808080">║</text>
<text x="16.0" y="425.5" textLength="1478.4" lengthAdjust="spacing" fill="#808080">╚══════════════════════════════════════════════════════════════════════════════════════════════════════════════════════════════════════════════════════════════════════════════╝</text>
</g>
</svg>
